Coordinates
version=1
nRows=10
nColumns=40
inDegrees=yes

Units are S.I. units (second, meters, Newtons, ...)
If the header above contains a line with 'inDegrees', this indicates whether rotational values are in degrees (yes) or radians (no).

endheader
time	pelvis_tilt	pelvis_list	pelvis_rotation	pelvis_tx	pelvis_ty	pelvis_tz	hip_flexion_r	hip_adduction_r	hip_rotation_r	knee_angle_r	knee_angle_r_beta	ankle_angle_r	subtalar_angle_r	mtp_angle_r	hip_flexion_l	hip_adduction_l	hip_rotation_l	knee_angle_l	knee_angle_l_beta	ankle_angle_l	subtalar_angle_l	mtp_angle_l	lumbar_extension	lumbar_bending	lumbar_rotation	arm_flex_r	arm_add_r	arm_rot_r	elbow_flex_r	pro_sup_r	wrist_flex_r	wrist_dev_r	arm_flex_l	arm_add_l	arm_rot_l	elbow_flex_l	pro_sup_l	wrist_flex_l	wrist_dev_l
      5.75999999999999978684	     41.60054056627118512779	      2.33809550939168531158	   -178.86633372770231176219	      0.44515919771170220365	      0.79571971729667634321	     -0.60619798400176538866	     72.05582043190287322432	     -9.08504816925646352388	    -14.04636682782768808408	     28.18596559551022906476	      0.49193790249549779192	     -1.70986589092973839676	      0.00000000000000000000	      0.00000000000000000000	     73.77166707710661341935	     -7.97346783204926268240	     -1.92577577942735733707	     29.32534077265153982239	      0.51182375075210728710	     -2.97269081183240668764	      0.00000000000000000000	      0.00000000000000000000	    -22.29889394126708523913	      9.08272864970545867891	      4.42695815373414269800	     53.96830396190957657154	    -12.22473616310013255770	     56.50571737072206701669	      0.87167546294711217847	     85.25780401081742354563	      0.00000000000000000000	      0.00000000000000000000	     40.93996478228692126322	     -2.60601615419370080673	     83.62479695474686991474	      0.53197059712928140840	      2.35719036292354822137	      0.00000000000000000000	      0.00000000000000000000
      5.76499999999999968026	     41.61950761194577808055	      2.38219441510158391750	   -178.97268152285892028885	      0.44512495555944753267	      0.79612674593079479912	     -0.60634277969526206853	     71.93167756205698992744	     -8.91691537353581686887	    -14.12083430640028858249	     27.88184242906728371736	      0.48662995190947760937	     -1.80444184574403765353	      0.00000000000000000000	      0.00000000000000000000	     73.66474113626665598531	     -8.07212379723182849034	     -1.84854352937212773611	     29.07730677266665963998	      0.50749474079547951533	     -3.04671329632448584235	      0.00000000000000000000	      0.00000000000000000000	    -21.84802077746070025910	      9.10770700419217327237	      4.54249179738191166678	     53.62983801731005684132	    -12.27071020536129708489	     56.92620443432448951171	      0.88407374643708669382	     85.21900808823085071708	      0.00000000000000000000	      0.00000000000000000000	     40.65318965633107239910	     -2.67367647159639698629	     84.21904744456075775361	      0.53133714121303310396	      2.36844443542987903584	      0.00000000000000000000	      0.00000000000000000000
      5.76999999999999957367	     41.48558307358342034377	      2.40499728226548192822	   -178.83779069326385524619	      0.44473880032416979180	      0.79661786379643473310	     -0.60591415112697077916	     71.72700632096666595316	     -9.03414479872762754553	    -14.13933940553968504616	     27.86193967883342992309	      0.48628258338769481117	     -1.81544632458945032205	      0.00000000000000000000	      0.00000000000000000000	     73.52104357197771378196	     -7.93914589271899373557	     -1.80790997079331616781	     29.10462351628360977429	      0.50797150791251843849	     -3.09190102010854372949	      0.00000000000000000000	      0.00000000000000000000	    -21.51576914061554290925	      9.22126510639405339020	      4.39695381486967562523	     53.29947783929478788423	    -12.29273083542720534922	     56.95339774026798096429	      0.86839728895042889167	     85.22669760063540422834	      0.00000000000000000000	      0.00000000000000000000	     40.40737856040595943341	     -2.65403795861391733624	     84.26097960054438829047	      0.53899083676216452687	      2.37367860105122874259	      0.00000000000000000000	      0.00000000000000000000
      5.77500000000000035527	     41.36978743957518389607	      2.39371997843013373242	   -178.79847108306933023414	      0.44441026749998796541	      0.79699639161364832507	     -0.60567075641526002538	     71.54907550958708384314	     -9.08499697705209641185	    -14.21043563233442341698	     27.80968320981575203632	      0.48537053594786994104	     -1.81004992497406247409	      0.00000000000000000000	      0.00000000000000000000	     73.36045512673574364726	     -7.88140787785138297039	     -1.76727994285551703868	     29.09312996689109809267	      0.50777090763287857644	     -3.14166685315926397237	      0.00000000000000000000	      0.00000000000000000000	    -21.17519271127947533273	      9.24554391267511910257	      4.31971992075837540881	     52.97870975051103670239	    -12.30951551842076341359	     57.01045695000856028400	      0.87277054866052083959	     85.22982587272191778993	      0.00000000000000000000	      0.00000000000000000000	     40.09462864585231756109	     -2.65705497699659032307	     84.33656096006374980334	      0.53420267121287912104	      2.37862329942760508672	      0.00000000000000000000	      0.00000000000000000000
      5.78000000000000024869	     41.36117403490538890765	      2.39806546448466395560	   -179.00858603552453018892	      0.44446036790268039773	      0.79744433205634313033	     -0.60606790739170934845	     71.36439949889103218084	     -8.72641112404656738022	    -13.84626282980253009214	     27.33951985902483272639	      0.47716463745435933053	     -2.02988837685910183950	      0.00000000000000000000	      0.00000000000000000000	     73.27201106195502688934	     -8.09812267887464543037	     -1.80479471900857779687	     28.96614552069039660864	      0.50555461094785469900	     -3.23939850274591423229	      0.00000000000000000000	      0.00000000000000000000	    -20.76091945676366989915	      9.17926780912135065194	      4.46549996138217242247	     52.63476376178160620611	    -12.36247466220854640540	     58.37833084604551459051	      0.89421993949178002481	     85.06231571229629651043	      0.00000000000000000000	      0.00000000000000000000	     39.71937028152069615317	     -2.91856346416783152264	     85.92175610845769995194	      0.53090155785788073484	      2.38958397242849507336	      0.00000000000000000000	      0.00000000000000000000
      5.78500000000000014211	     41.22157778510407410977	      2.43679376665418079284	   -178.85128109945463847907	      0.44405958096150988101	      0.79787333321605669045	     -0.60567713705640502386	     71.17118465635337543063	     -8.86111168588265663004	    -13.88222309263106524213	     27.35204947766190741731	      0.47738332055359550266	     -2.01931456475283166441	      0.00000000000000000000	      0.00000000000000000000	     73.12275924371411406355	     -7.96541962472730169509	     -1.78432055750446338926	     28.97899540019625419518	      0.50577888365371648227	     -3.26947714897777741427	      0.00000000000000000000	      0.00000000000000000000	    -20.40978210987681862321	      9.30199746658954396139	      4.30520817143626821633	     52.28610904249195812099	    -12.39061132461494452173	     58.38332458342385677952	      0.87317468764389349900	     85.06835097646417409578	      0.00000000000000000000	      0.00000000000000000000	     39.49603571641306842821	     -2.91084053833610090223	     85.92428713636887493976	      0.54277495376748818856	      2.39384641936158804043	      0.00000000000000000000	      0.00000000000000000000
      5.79000000000000003553	     41.08318666372904459649	      2.44467123092654681216	   -178.77511810395557745323	      0.44368467906787112387	      0.79825406272367771532	     -0.60545172809616731868	     71.00012008426408272044	     -8.93328185146706488240	    -13.92914770204142982379	     27.36922585316051836912	      0.47768310485960513434	     -2.00311458151999532973	      0.00000000000000000000	      0.00000000000000000000	     72.95709809758930930457	     -7.89403850508155535692	     -1.75217087752972289216	     28.98004095775620214681	      0.50579713207565668576	     -3.29259569404029139861	      0.00000000000000000000	      0.00000000000000000000	    -20.05984767106564348182	      9.37066647293728749446	      4.19432478874848868600	     51.94148154959318475221	    -12.38328971969711922441	     58.41421303908312268049	      0.87238151503210681348	     85.07603767442115838548	      0.00000000000000000000	      0.00000000000000000000	     39.18316966580468374559	     -2.91093823522606909293	     85.93017526904118597031	      0.54055885587332619391	      2.39905443564551745794	      0.00000000000000000000	      0.00000000000000000000
      5.79499999999999992895	     40.94615969760862839166	      2.46568980831549477983	   -178.71493849934515196765	      0.44330355408007277029	      0.79864845233534287328	     -0.60529930144102173095	     70.84093959821122155063	     -8.97700130342721713816	    -13.94991492398581200973	     27.40115312573042771760	      0.47824034088713174295	     -1.99203209966838423739	      0.00000000000000000000	      0.00000000000000000000	     72.79748222540025892613	     -7.85331597846599205326	     -1.72811660758948804073	     28.97801073026483109629	      0.50576169792136771441	     -3.30948098086050324085	      0.00000000000000000000	      0.00000000000000000000	    -19.72013871744319502000	      9.43192027127795817876	      4.10247308355535977853	     51.60489591654192764736	    -12.39488369592356775684	     58.46749588685806031663	      0.87373613402861471933	     85.08349375757278210131	      0.00000000000000000000	      0.00000000000000000000	     38.89741435943267333641	     -2.93380896639599164644	     85.94251145601866426205	      0.53949119164012915295	      2.40302486113890356734	      0.00000000000000000000	      0.00000000000000000000
      5.79999999999999982236	     40.79606613651915125729	      2.46858728393567616877	   -178.87427013256237273708	      0.44293111617751346198	      0.79901634620748229754	     -0.60570873792876001040	     70.75408940148813030646	     -8.79997572344644929387	    -13.90795839054341875851	     27.53776570917779054071	      0.48062468026794374909	     -1.88582046710719408722	      0.00000000000000000000	      0.00000000000000000000	     72.54311501769480230450	     -8.03960972720651589896	     -1.74693379323204345255	     28.86895624994419762288	      0.50385833817572134308	     -3.20899442779231458545	      0.00000000000000000000	      0.00000000000000000000	    -19.41541836913870966441	      9.37209175430257701578	      4.17015696719923134594	     51.29271871724230891232	    -12.36640319021063127991	     58.89488251801756746318	      0.90382572520413062556	     85.05543594814425034656	      0.00000000000000000000	      0.00000000000000000000	     38.58216848984497460151	     -3.06314476906424015823	     86.16784788020719076940	      0.53589866618089621042	      2.41065805106425301574	      0.00000000000000000000	      0.00000000000000000000
      5.80499999999999971578	     40.61957625460612320012	      2.51374016683309298159	   -178.71913611995250903419	      0.44255130323519181745	      0.79939158940473931114	     -0.60541817133281616847	     70.55010748273573994993	     -8.90453482815722807686	    -13.86164442901824678245	     27.57102463973088646298	      0.48120515811178737886	     -1.89407814851037392678	      0.00000000000000000000	      0.00000000000000000000	     72.38547022977704159530	     -7.92641053867256495380	     -1.72872494080789795845	     28.91515351449487170044	      0.50466463254754545531	     -3.23800063995516973492	      0.00000000000000000000	      0.00000000000000000000	    -19.07950977572283335348	      9.48339586383345256593	      4.02453264951053046872	     50.93077141666461216118	    -12.39526541670475090484	     58.93971634617703614367	      0.88028780099373526991	     85.06249961439978335420	      0.00000000000000000000	      0.00000000000000000000	     38.33611007325210096042	     -3.05203369700975413181	     86.18550293240434712061	      0.54811276211751325249	      2.41757255888956423817	      0.00000000000000000000	      0.00000000000000000000
